<?xml version="1.0" standalone="no"?>
<!DOCTYPE svg PUBLIC "-//W3C//DTD SVG 20010904//EN"
 "http://www.w3.org/TR/2001/REC-SVG-20010904/DTD/svg10.dtd">
<svg version="1.0" xmlns="http://www.w3.org/2000/svg"
 width="1600.000000pt" height="872.000000pt" viewBox="0 0 1600.000000 872.000000"
 preserveAspectRatio="xMidYMid meet">

<g transform="translate(0.000000,872.000000) scale(0.100000,-0.100000)"
fill="#000000" stroke="none">
<path d="M12540 6388 c-30 -50 -24 -88 15 -88 19 0 29 11 49 56 14 31 26 58
26 60 0 2 -16 4 -35 4 -29 0 -39 -6 -55 -32z m40 16 c0 -12 -34 -64 -42 -64
-11 0 -10 7 7 40 14 26 35 41 35 24z"/>
<path d="M4281 6309 c-43 -96 -94 -168 -118 -169 -26 0 -63 62 -63 106 0 22
-2 24 -14 14 -8 -6 -12 -18 -9 -26 3 -8 -1 -14 -10 -14 -35 0 -36 -70 -2 -135
30 -55 28 -58 -60 -99 -135 -64 -270 -78 -520 -51 -87 9 -162 18 -166 20 -21
14 -376 66 -512 76 -139 10 -176 10 -259 -4 -54 -8 -112 -22 -129 -31 -18 -9
-37 -16 -42 -16 -16 0 -147 -81 -147 -91 0 -15 -44 -50 -58 -44 -7 2 -11 1 -7
-4 3 -5 -1 -15 -9 -23 -8 -7 -42 -40 -77 -73 -93 -88 -181 -233 -220 -364 -7
-23 -18 -41 -24 -41 -17 0 -26 -53 -12 -62 8 -5 6 -9 -6 -14 -14 -5 -17 -19
-17 -70 0 -211 170 -320 421 -270 115 24 213 73 282 141 81 81 101 128 105
250 3 98 3 101 -30 155 -54 90 -126 121 -205 88 -28 -11 -28 -11 21 -19 80
-13 124 -65 149 -180 17 -75 14 -136 -7 -176 -21 -39 -75 -94 -87 -88 -10 7
-52 -19 -44 -26 2 -3 -4 -5 -13 -6 -9 -1 -48 -13 -87 -28 -131 -50 -272 -44
-354 16 -82 59 -89 183 -21 376 75 217 201 354 380 412 125 41 330 50 507 21
32 -6 59 -10 61 -10 2 0 0 -4 -3 -10 -3 -5 0 -10 8 -10 33 0 37 -25 16 -88
l-21 -62 -46 3 -47 2 0 -750 c0 -412 3 -758 8 -767 4 -10 14 -15 22 -12 8 4
15 1 15 -6 0 -9 4 -9 16 1 15 12 16 11 9 -11 -7 -21 -121 -165 -201 -252 -39
-42 -101 -88 -108 -80 -4 4 -13 0 -19 -8 -7 -9 -51 -40 -99 -70 -49 -30 -88
-60 -88 -66 0 -6 9 -19 19 -28 22 -20 4 -28 170 79 166 108 266 190 422 345
167 167 243 255 234 270 -3 5 -29 10 -57 10 -44 0 -54 4 -84 34 l-34 34 0 706
c0 666 1 706 18 706 9 0 55 -7 102 -16 54 -10 149 -16 260 -16 165 -1 192 2
369 37 95 19 244 84 321 140 l50 37 53 -26 c62 -29 111 -27 164 5 60 37 71 96
27 148 -22 26 -33 31 -71 31 -39 0 -44 2 -38 18 27 66 46 135 43 158 -3 25 -5
23 -27 -27z"/>
<path d="M12412 6317 c-34 -36 -28 -64 23 -110 25 -22 45 -47 45 -54 0 -7 11
-18 25 -23 14 -5 25 -12 25 -15 0 -12 -29 -75 -35 -75 -3 0 -17 12 -30 28 -21
22 -26 25 -34 12 -7 -9 -6 -17 1 -21 6 -4 8 -14 5 -23 -4 -10 -1 -16 9 -16 13
0 12 -4 -3 -25 -15 -22 -25 -25 -61 -23 -34 3 -43 0 -48 -16 -13 -39 43 -96
95 -96 11 0 50 14 85 32 l64 31 31 -31 c17 -17 31 -37 31 -46 0 -20 -76 -100
-88 -92 -5 3 -13 -4 -18 -17 -9 -24 -17 -1457 -9 -1494 3 -13 13 -23 23 -23
28 0 150 102 156 131 2 14 5 149 6 301 0 232 -2 277 -14 287 -13 11 2 31 99
129 127 129 123 128 150 37 13 -41 15 -120 15 -459 -1 -265 2 -412 9 -419 11
-11 56 20 128 88 l44 42 -3 398 -3 397 -69 65 c-84 78 -121 99 -142 82 -8 -6
-14 -18 -14 -26 0 -22 -126 -135 -165 -149 l-34 -11 -3 286 c-3 278 -4 287
-25 317 -18 25 -20 33 -9 37 8 3 17 18 20 34 4 15 27 55 51 88 25 33 45 69 45
80 0 12 -13 34 -29 49 -27 26 -33 27 -84 21 -50 -6 -56 -5 -67 15 -10 18 -7
32 14 81 45 98 19 136 -84 124 -69 -8 -100 5 -100 40 0 13 5 27 10 30 6 3 10
10 10 16 0 17 -26 9 -48 -14z"/>
<path d="M9945 6110 c-92 -14 -185 -74 -185 -120 0 -24 -34 -69 -57 -75 -13
-3 -23 -12 -23 -20 0 -8 -4 -15 -9 -15 -5 0 -16 -31 -26 -69 -14 -59 -15 -78
-5 -128 17 -80 40 -122 110 -196 81 -87 221 -178 505 -332 105 -56 229 -139
281 -187 89 -82 203 -253 219 -329 2 -8 10 -39 18 -67 16 -52 25 -217 13 -229
-12 -12 -7 -45 7 -37 8 6 8 3 -2 -9 -7 -9 -11 -24 -7 -32 11 -28 -36 -127
-103 -218 -74 -100 -149 -187 -163 -187 -4 0 -21 -13 -36 -30 -15 -16 -34 -31
-42 -32 -8 -2 -24 -12 -35 -23 -24 -23 -255 -145 -276 -145 -8 0 -26 -6 -40
-14 -27 -14 -130 -39 -234 -56 -98 -17 -354 -12 -520 11 -82 11 -175 22 -205
24 l-55 5 40 -16 c120 -48 358 -86 545 -86 391 -1 693 125 974 406 175 176
278 341 327 526 108 413 -172 835 -666 1005 -254 88 -385 167 -456 278 -57 88
-65 128 -39 182 17 35 32 49 73 69 99 47 178 56 517 56 l310 0 10 -26 c6 -14
10 -43 10 -65 0 -24 4 -38 10 -34 25 15 7 -24 -25 -55 -19 -19 -35 -30 -35
-25 0 5 -7 -1 -16 -13 -8 -12 -21 -22 -28 -22 -21 0 -47 -35 -40 -54 9 -23 14
-21 85 32 35 26 148 107 252 181 103 74 187 139 187 146 0 34 -16 35 -570 34
-300 -1 -567 -5 -595 -9z"/>
<path d="M7517 6094 c-3 -3 -2 -16 3 -28 4 -13 10 -46 12 -75 l3 -52 -64 -26
c-75 -30 -73 -28 -180 -168 -47 -61 -119 -154 -160 -208 -42 -53 -94 -122
-116 -151 -126 -171 -149 -195 -175 -189 -14 3 -26 6 -26 7 -9 8 24 168 52
252 64 194 147 330 282 461 72 70 81 82 66 91 -13 7 -35 2 -83 -18 -114 -48
-133 -60 -121 -75 9 -11 7 -19 -9 -36 -19 -21 -22 -21 -39 -6 -16 15 -18 15
-18 -2 0 -13 5 -17 16 -13 12 4 12 2 -2 -15 -10 -11 -18 -25 -18 -31 0 -6 -9
-14 -20 -17 -11 -3 -20 -11 -20 -17 0 -6 -15 -30 -34 -53 -36 -44 -96 -148
-96 -167 0 -6 -18 -35 -40 -63 -22 -29 -47 -73 -56 -99 -13 -38 -20 -47 -35
-43 -15 4 -16 2 -7 -12 8 -13 6 -24 -7 -44 -10 -15 -23 -27 -29 -26 -25 3 -35
-2 -34 -18 1 -10 -5 -62 -11 -116 -15 -122 -8 -225 25 -341 66 -233 224 -429
429 -535 126 -64 186 -76 365 -74 110 2 136 5 213 32 281 95 444 285 533 621
13 49 17 107 17 240 0 157 -3 185 -26 275 -43 162 -86 260 -171 390 -57 86
-207 233 -306 299 -83 55 -100 62 -113 50z m11 -296 c76 -28 192 -109 252
-176 107 -118 202 -323 229 -492 14 -83 14 -226 0 -310 -6 -36 -11 -77 -12
-92 0 -15 -4 -25 -9 -22 -5 3 -8 -7 -7 -23 5 -65 -140 -293 -187 -293 -7 0
-18 -8 -23 -17 -8 -14 -11 -15 -11 -3 -1 13 -2 13 -13 0 -13 -16 -87 -50 -185
-85 -76 -27 -232 -40 -315 -26 -251 43 -400 276 -433 676 l-6 80 73 95 c40 52
92 120 115 150 167 215 316 408 372 482 73 97 61 92 160 56z"/>
<path d="M4264 5911 c4 -5 -3 -7 -14 -4 -29 8 -79 -16 -85 -41 -3 -11 -4 -385
-3 -831 3 -939 -8 -864 111 -750 l67 65 0 755 c0 648 -2 756 -14 761 -8 3 -12
12 -10 19 3 7 -4 18 -15 24 -24 13 -44 14 -37 2z"/>
<path d="M4382 5888 c-19 -19 -14 -45 14 -67 31 -25 57 -27 73 -7 15 18 2 47
-31 70 -27 19 -40 20 -56 4z"/>
<path d="M13280 5888 c0 -2 7 -27 15 -57 9 -35 11 -60 5 -71 -5 -10 -7 -33 -4
-52 4 -24 1 -38 -10 -47 -9 -7 -16 -10 -16 -7 0 4 -7 1 -15 -8 -12 -11 -13
-21 -5 -41 13 -33 13 -48 0 -40 -15 9 -12 -40 4 -79 27 -66 118 -56 161 18 30
52 31 79 5 179 -21 85 -59 157 -97 187 -22 17 -43 26 -43 18z"/>
<path d="M13221 5791 c-9 -6 -10 -10 -2 -12 8 -3 3 -21 -14 -53 -14 -27 -24
-51 -21 -53 12 -12 44 11 59 42 30 63 19 102 -22 76z"/>
<path d="M8620 5679 c-35 -16 -42 -22 -30 -30 12 -8 10 -9 -6 -4 -13 3 -28 0
-37 -10 -9 -8 -19 -15 -24 -15 -4 0 -17 -8 -28 -16 -19 -16 -19 -16 5 -10 23
6 23 6 7 -7 -9 -8 -28 -12 -42 -9 -21 4 -24 1 -19 -13 5 -11 -2 -25 -17 -40
-39 -39 -46 -50 -54 -85 -7 -31 -9 -32 -45 -27 l-38 5 -6 -46 c-8 -57 -8 -150
0 -180 4 -13 17 -25 35 -30 32 -8 39 -25 13 -31 -10 -2 -25 7 -34 19 -13 17
-23 21 -39 15 -13 -4 -20 -12 -17 -20 6 -16 -17 -38 -28 -27 -5 4 -6 -4 -4
-18 2 -21 8 -25 38 -25 l35 0 2 -310 c2 -292 13 -432 35 -461 16 -21 -14 -95
-42 -106 -14 -5 -38 -16 -53 -24 -16 -8 -33 -12 -38 -8 -18 11 -9 -59 12 -93
25 -40 44 -38 44 5 1 17 4 34 7 38 14 13 59 -7 68 -30 4 -13 16 -26 24 -29 19
-8 20 -31 4 -93 -15 -53 -49 -83 -105 -90 -20 -3 -39 -7 -42 -10 -3 -3 3 -20
14 -40 20 -37 50 -50 93 -39 86 21 91 20 137 -30 24 -25 42 -52 39 -60 -7 -17
41 -29 65 -16 33 18 90 89 99 125 15 52 -3 111 -43 142 -26 20 -43 24 -98 24
-41 0 -67 4 -67 11 0 5 16 31 35 56 66 87 54 152 -35 183 -24 8 -45 21 -47 27
-3 7 12 61 33 120 l38 108 6 324 5 324 150 34 c83 19 167 37 188 40 24 4 45
15 57 31 19 23 26 62 15 74 -3 3 -47 -4 -98 -17 -175 -42 -282 -65 -302 -65
-19 0 -20 6 -17 125 l3 125 67 50 c37 27 70 49 73 50 3 0 10 -10 16 -22 14
-31 95 -120 144 -159 48 -37 52 -35 109 59 l39 66 -22 14 c-39 27 -79 66 -118
120 -36 47 -43 52 -77 52 -20 0 -57 -10 -82 -21z"/>
<path d="M5728 5665 c-3 -3 -3 -37 0 -75 3 -48 1 -70 -6 -70 -14 0 -24 36 -20
67 5 39 -16 29 -39 -17 -12 -25 -21 -47 -20 -50 0 -3 -3 -17 -7 -33 -18 -62
23 -171 55 -151 6 4 15 0 20 -7 7 -12 13 -12 36 1 88 49 100 189 25 303 -24
36 -33 43 -44 32z m-8 -301 c0 -8 -4 -12 -10 -9 -5 3 -10 10 -10 16 0 5 5 9
10 9 6 0 10 -7 10 -16z"/>
<path d="M3392 5398 c-7 -7 -17 -38 -23 -70 -9 -46 -15 -58 -30 -58 -15 0 -19
-7 -19 -33 0 -39 15 -57 47 -57 15 0 21 -4 17 -14 -4 -11 -12 -13 -31 -5 -33
12 -33 12 -33 -12 0 -36 31 -89 61 -104 15 -8 49 -15 75 -15 37 0 45 3 40 15
-8 22 -2 19 37 -20 27 -27 43 -35 70 -35 44 0 53 13 33 42 -31 44 -12 85 29
66 31 -14 72 -3 100 28 l24 25 16 -24 c12 -19 15 -46 13 -128 l-3 -104 -103
-1 c-57 -1 -106 -4 -108 -7 -3 -3 2 -19 10 -36 20 -38 21 -32 -14 -76 -17 -21
-47 -72 -67 -113 l-37 -73 -49 6 -50 7 6 -41 c7 -58 84 -180 194 -310 l29 -34
71 69 c66 65 224 167 180 116 -11 -11 -16 -26 -12 -31 3 -7 -2 -11 -14 -11
-11 0 -23 -5 -26 -11 -8 -12 75 -94 118 -116 59 -30 57 -44 57 440 l0 444 -22
20 c-13 11 -65 53 -117 92 -95 73 -128 84 -172 61 -18 -10 -18 -13 -4 -41 20
-37 13 -49 -23 -43 -20 3 -41 -4 -72 -25 -30 -20 -48 -27 -56 -20 -6 5 -18 7
-26 4 -12 -5 -14 7 -10 72 4 67 1 82 -15 102 -25 31 -47 20 -39 -20 5 -27 4
-29 -15 -18 -18 9 -21 17 -15 55 6 45 -3 61 -22 42z m48 -228 c0 -5 -4 -10
-10 -10 -5 0 -10 5 -10 10 0 6 5 10 10 10 6 0 10 -4 10 -10z m449 -296 c3 -2
-1 -10 -7 -16 -14 -14 -43 -1 -50 22 -4 10 3 11 24 6 16 -4 31 -10 33 -12z
m-71 -243 c2 -143 4 -153 22 -158 36 -10 22 -26 -17 -20 -27 4 -51 0 -82 -14
-52 -23 -55 -21 -95 56 -31 59 -33 105 -6 164 33 71 76 119 113 124 65 8 62
16 65 -152z"/>
<path d="M5855 5343 c-13 -95 -61 -165 -79 -118 -3 8 -14 15 -25 15 -10 0 -54
18 -97 40 -86 44 -118 51 -111 23 3 -10 8 -35 11 -55 7 -36 6 -37 -41 -60 -41
-21 -57 -38 -111 -124 -35 -54 -69 -114 -77 -133 -10 -22 -20 -31 -30 -28 -27
11 -25 -10 10 -81 49 -103 47 -103 271 -100 141 2 197 0 221 -10 33 -14 63
-62 61 -98 0 -10 3 -27 7 -36 5 -12 3 -18 -6 -18 -10 0 -10 -3 -2 -11 9 -9 7
-21 -8 -50 -11 -22 -23 -39 -27 -40 -4 0 -20 -2 -37 -3 -16 -2 -59 -11 -95
-22 -44 -12 -99 -18 -170 -19 -119 0 -163 15 -232 83 -31 29 -38 33 -44 19
-18 -49 32 -175 91 -224 16 -15 54 -37 83 -51 45 -20 62 -23 105 -17 78 10 77
10 162 46 149 61 244 189 253 341 4 64 1 84 -17 122 -27 54 -82 106 -153 143
-50 26 -61 27 -221 31 -194 5 -183 -8 -104 118 35 56 58 84 71 84 10 0 58 -18
108 -40 l89 -39 52 33 c100 65 137 128 137 233 0 93 -33 127 -45 46z"/>
<path d="M4800 5303 c-41 -13 -57 -26 -53 -43 3 -12 -3 -22 -17 -30 -12 -6
-30 -20 -41 -31 -10 -10 -25 -16 -34 -13 -10 4 -15 0 -15 -12 -1 -24 -25 -56
-35 -46 -5 4 -5 2 -1 -5 4 -7 0 -29 -9 -49 -15 -37 -27 -40 -77 -19 -17 7 -18
-8 -18 -222 0 -250 6 -289 63 -385 26 -45 133 -158 194 -205 l33 -25 72 64
c40 36 96 80 123 99 28 19 52 37 55 40 3 3 29 18 58 34 47 25 52 32 52 62 0
18 -4 33 -10 33 -24 0 -199 -93 -193 -103 4 -6 1 -7 -6 -3 -7 5 -35 -7 -66
-28 -30 -20 -62 -36 -70 -36 -38 0 -105 153 -120 273 -6 48 -12 60 -34 72 -14
8 -20 14 -12 15 7 0 77 9 155 19 77 11 184 25 236 32 52 6 98 16 102 23 4 6 8
33 8 60 l0 49 -36 -6 c-33 -6 -35 -4 -28 16 48 151 47 160 -38 241 -116 110
-184 146 -238 129z m68 -172 c34 -38 62 -74 62 -80 0 -6 10 -19 22 -31 12 -11
16 -20 9 -20 -13 0 -5 -40 10 -50 5 -3 6 -22 3 -41 -8 -46 -52 -77 -75 -53
-13 13 -27 12 -113 -6 -54 -11 -100 -20 -102 -20 -2 0 -4 67 -4 150 l0 150 48
35 c26 19 54 35 62 35 9 0 44 -31 78 -69z"/>
<path d="M11293 5293 c-20 -10 -33 -24 -33 -35 0 -15 -5 -18 -22 -13 -18 5
-20 4 -8 -4 13 -9 12 -12 -7 -17 -13 -4 -23 -11 -23 -18 0 -6 -19 -49 -43 -96
-36 -73 -45 -85 -67 -84 -16 0 -24 5 -22 15 3 10 0 11 -8 3 -13 -13 -16 -106
-12 -441 l2 -241 58 -36 c31 -20 89 -53 127 -73 88 -45 127 -42 179 15 48 52
196 249 232 308 l29 49 0 257 0 257 -40 41 c-108 113 -249 159 -342 113z m156
-91 l36 -29 2 -324 c2 -222 6 -331 14 -346 10 -19 8 -28 -15 -62 -51 -74 -98
-122 -113 -117 -8 3 -11 2 -8 -3 3 -5 1 -12 -5 -16 -5 -3 -10 -1 -10 5 0 7 -8
9 -20 5 -24 -8 -76 19 -91 47 -9 17 -11 115 -6 385 l6 362 25 50 c14 27 36 57
48 66 33 23 92 13 137 -23z"/>
<path d="M11347 5004 c-4 -4 -7 -26 -7 -48 -1 -41 -21 -82 -34 -69 -4 4 -4 -1
0 -11 5 -12 2 -22 -9 -28 -33 -18 -14 -132 30 -180 28 -31 61 -23 79 20 22 51
30 117 14 127 -7 4 -16 2 -20 -5 -10 -16 -30 -4 -30 17 0 9 10 27 22 40 l21
23 -23 52 c-28 62 -34 71 -43 62z"/>
<path d="M12199 5303 c-1 -5 0 -24 1 -44 1 -32 -2 -37 -27 -43 -41 -11 -103
-54 -103 -73 0 -9 -9 -27 -21 -39 -17 -18 -24 -20 -45 -10 -23 10 -24 16 -24
98 0 55 -4 89 -12 94 -16 10 -54 -38 -74 -95 -17 -47 -18 -48 -56 -45 l-38 3
0 -782 c0 -814 2 -856 42 -878 18 -10 14 -34 -17 -121 -20 -56 -21 -57 -69
-60 -30 -3 -36 -7 -36 -25 0 -13 10 -33 21 -44 19 -19 29 -21 80 -15 53 5 60
4 73 -17 7 -12 17 -35 20 -50 5 -20 17 -33 41 -43 74 -31 146 -9 195 58 28 37
31 49 27 90 -5 56 -45 115 -84 124 -19 5 -44 -2 -90 -25 -35 -18 -70 -30 -79
-27 -27 10 -28 36 -2 64 59 65 68 138 68 579 l0 374 23 -12 c12 -7 46 -37 74
-66 44 -45 56 -52 72 -44 10 6 23 24 29 39 6 16 51 90 101 164 l91 136 0 299
0 299 -57 55 c-77 75 -121 104 -124 82z m-15 -182 c15 -17 17 -46 16 -261 l0
-242 30 -11 c27 -10 30 -15 24 -42 -6 -29 -104 -178 -126 -191 -6 -4 -17 1
-23 10 -7 9 -36 28 -64 42 l-51 26 0 248 c0 163 -4 250 -10 252 -6 2 13 23 42
48 29 24 71 65 93 91 22 26 43 48 46 48 3 1 14 -8 23 -18z"/>
<path d="M13318 5296 c-85 -23 -78 24 -78 -553 0 -448 2 -514 15 -519 19 -8
46 10 116 74 l54 50 3 461 c2 314 -1 467 -8 481 -12 23 -35 24 -102 6z"/>
<path d="M13785 5296 c-16 -7 -50 -32 -74 -55 -24 -22 -47 -41 -52 -41 -8 0
-66 -80 -67 -93 0 -4 -4 -21 -7 -38 -6 -27 -10 -30 -33 -24 -15 4 -31 7 -37 8
-6 1 -10 -82 -10 -243 0 -243 0 -245 26 -301 37 -78 108 -166 188 -232 38 -31
74 -57 78 -57 5 0 25 16 44 36 56 58 159 138 237 184 67 40 72 46 72 77 0 42
-2 42 -150 -32 -69 -34 -106 -59 -109 -71 -3 -19 -28 -43 -45 -44 -4 0 -6 7
-3 15 5 12 2 12 -20 2 -23 -10 -28 -8 -49 18 -40 51 -78 164 -89 268 -1 12 -3
26 -4 30 0 4 -15 14 -32 21 -32 14 -46 11 399 68 91 11 94 13 96 81 l1 42 -37
-1 c-21 -1 -38 -1 -38 0 0 0 9 30 20 64 33 106 31 117 -55 199 -78 75 -165
133 -200 133 -11 -1 -33 -7 -50 -14z m91 -173 c60 -72 65 -81 61 -115 -4 -28
-2 -35 9 -31 8 3 14 -1 14 -8 0 -11 2 -11 10 1 7 11 9 1 8 -33 0 -35 -6 -54
-21 -68 -23 -21 -53 -25 -59 -8 -2 7 -37 3 -105 -10 -56 -12 -103 -21 -105
-21 -1 0 -2 69 -1 152 l2 153 43 32 c24 18 51 33 60 33 10 0 47 -35 84 -77z"/>
<path d="M3629 5243 c-13 -16 -12 -17 4 -4 9 7 17 15 17 17 0 8 -8 3 -21 -13z"/>
<path d="M3540 5179 c0 -5 5 -7 10 -4 6 3 10 8 10 11 0 2 -4 4 -10 4 -5 0 -10
-5 -10 -11z"/>
<path d="M8290 3685 c7 -9 10 -18 7 -22 -4 -3 -2 -12 3 -18 17 -20 -14 -39
-39 -25 -12 6 -21 7 -21 3 0 -4 -5 -2 -12 5 -19 19 -25 15 -32 -21 -12 -62 22
-117 71 -117 31 0 88 55 101 97 20 68 -4 113 -61 113 -25 0 -28 -2 -17 -15z"/>
</g>
</svg>
